<svg viewBox="0 0 100 100" xmlns="http://www.w3.org/2000/svg" fill="#D4A017">
  <path 
    d="M50 0C22.4 0 0 22.4 0 50s22.4 50 50 50 50-22.4 50-50S77.6 0 50 0zm0 90c-22.1 0-40-17.9-40-40s17.9-40 40-40 40 17.9 40 40-17.9 40-40 40z" 
    opacity=".2" 
  />
  
  <g stroke="#D4A017" stroke-width="6" stroke-linecap="round">
    <line x1="65.3" y1="13.1" x2="59.2" y2="27.7" /> <line x1="86.9" y1="34.7" x2="72.3" y2="40.8" /> <line x1="86.9" y1="65.3" x2="72.3" y2="59.2" /> <line x1="65.3" y1="86.9" x2="59.2" y2="72.3" /> <line x1="34.7" y1="86.9" x2="40.8" y2="72.3" /> <line x1="13.1" y1="65.3" x2="27.7" y2="59.2" /> <line x1="13.1" y1="34.7" x2="27.7" y2="40.8" /> <line x1="34.7" y1="13.1" x2="40.8" y2="27.7" /> </g>
  
  <circle cx="50" cy="50" r="6" fill="#D4A017" />
</svg>
